<?xml version="1.0" encoding="utf-8"?>
<!-- Generator: Adobe Illustrator 19.2.1, SVG Export Plug-In . SVG Version: 6.00 Build 0)  -->
<svg version="1.1" id="Layer_1" xmlns="http://www.w3.org/2000/svg" xmlns:xlink="http://www.w3.org/1999/xlink" x="0px" y="0px"
	 width="325.5px" height="50px" viewBox="0 0 325.5 50" style="enable-background:new 0 0 325.5 50;" xml:space="preserve">
<style type="text/css">
	.st0{display:none;fill:#5F808D;}
	.st1{fill:#FFFFFF;}
	.st2{fill:#E30613;}
</style>
<rect x="-256.8" y="-251.7" class="st0" width="839.4" height="594.5"/>
<path class="st1" d="M16.6,37.8c1.6-0.9,2.6-2,2.6-4.2c0-2.2-1.2-5.3-6.8-5.3H0.8v21.2h12c3.7,0,7.4-2.2,7.4-6.5
	C20.3,39.9,18.5,38.4,16.6,37.8z M7.4,33.3h3.4c1.3,0,2.2,0.4,2.2,1.5c0,1.4-0.9,1.8-2.2,1.8H7.4V33.3z M11.2,44.4H7.4v-4h4.1
	c1.5,0,2.3,0.7,2.3,1.9C13.8,44.1,12.6,44.4,11.2,44.4z"/>
<rect x="21.4" y="28.3" class="st1" width="6.5" height="21.2"/>
<path class="st1" d="M39.9,27.8c-6.5,0-10.8,4.6-10.8,11.1S33.5,50,39.9,50s10.8-4.6,10.8-11.1S46.4,27.8,39.9,27.8z M39.9,44.7
	c-1.7,0-4.2-1.1-4.2-5.8c0-4.7,2.6-5.8,4.2-5.8c1.7,0,4.2,1.1,4.2,5.8C44.1,43.6,41.6,44.7,39.9,44.7z"/>
<polygon class="st1" points="58.5,28.3 52,28.3 52,49.5 67.9,49.5 67.9,44.1 58.5,44.1 "/>
<path class="st1" d="M78.6,27.8c-6.5,0-10.8,4.6-10.8,11.1S72.2,50,78.6,50c6.5,0,10.8-4.6,10.8-11.1S85.1,27.8,78.6,27.8z
	 M78.6,44.7c-1.7,0-4.2-1.1-4.2-5.8c0-4.7,2.6-5.8,4.2-5.8c1.7,0,4.2,1.1,4.2,5.8C82.8,43.6,80.3,44.7,78.6,44.7z"/>
<path class="st1" d="M102.2,42.4h2.9c-0.3,1.6-1.9,2.3-3.4,2.3c-4,0-4.8-3.5-4.8-5.5c0-1.5-0.1-6.2,4.3-6.2c1.5,0,2.9,1.1,3.1,2.6
	h6.3c-1-5-4.4-7.9-9.8-7.9c-4.8,0-10.5,3.2-10.5,11.3c0,6,3.9,10.9,10.1,10.9c2.3,0,4.6-0.8,6-2.7l0.2,2.2h4.1V37.8h-8.7V42.4z"/>
<polygon class="st1" points="120,36.1 116.5,28.3 109.3,28.3 116.7,41.7 116.7,49.5 123.3,49.5 123.3,41.7 130.9,28.3 123.7,28.3 
	"/>
<path class="st1" d="M7.8,21.1c3.9,0,6.7-2.7,6.9-6.6h-2.8c-0.2,2.4-1.6,4.3-4.1,4.3c-3.5,0-4.9-3.1-4.9-6.2c0-3.1,1.5-6.2,4.9-6.2
	c2.4,0,3.6,1.4,4,3.2h2.8c-0.3-3.5-3.2-5.5-6.9-5.5C2.9,4.1,0,7.9,0,12.6C0,17.2,2.9,21.1,7.8,21.1z"/>
<path class="st1" d="M23.1,4.1c-4.9,0-7.8,3.9-7.8,8.5c0,4.6,2.9,8.5,7.8,8.5c4.9,0,7.8-3.9,7.8-8.5C30.8,7.9,27.9,4.1,23.1,4.1z
	 M23.1,18.8c-3.5,0-4.9-3.1-4.9-6.2c0-3.1,1.5-6.2,4.9-6.2S28,9.5,28,12.6C28,15.7,26.5,18.8,23.1,18.8z"/>
<polygon class="st1" points="34.9,8.2 35,8.2 39.5,20.7 41.8,20.7 46.3,8.2 46.4,8.2 46.4,20.7 49.1,20.7 49.1,4.5 45.1,4.5 
	40.8,17.2 40.7,17.2 36.2,4.5 32.2,4.5 32.2,20.7 34.9,20.7 "/>
<polygon class="st1" points="54,8.2 54.1,8.2 58.6,20.7 60.9,20.7 65.4,8.2 65.5,8.2 65.5,20.7 68.2,20.7 68.2,4.5 64.2,4.5 
	59.8,17.2 59.8,17.2 55.3,4.5 51.3,4.5 51.3,20.7 54,20.7 "/>
<path class="st1" d="M76.9,21.1c4,0,6.7-2.1,6.7-6.2V4.5h-2.8v9.5c0,2.2-0.1,4.7-3.8,4.7c-3.7,0-3.8-2.5-3.8-4.7V4.5h-2.8v10.4
	C70.3,19,72.9,21.1,76.9,21.1z"/>
<polygon class="st1" points="88.3,8.8 88.4,8.8 95.8,20.7 98.8,20.7 98.8,4.5 96.1,4.5 96.1,16.4 96,16.4 88.6,4.5 85.6,4.5 
	85.6,20.7 88.3,20.7 "/>
<rect x="101" y="4.5" class="st1" width="2.8" height="16.2"/>
<path class="st1" d="M113.1,21.1c3.9,0,6.7-2.7,6.9-6.6h-2.8c-0.2,2.4-1.6,4.3-4.1,4.3c-3.5,0-4.9-3.1-4.9-6.2
	c0-3.1,1.5-6.2,4.9-6.2c2.4,0,3.6,1.4,4,3.2h2.8c-0.3-3.5-3.2-5.5-6.9-5.5c-4.9,0-7.8,3.9-7.8,8.5C105.3,17.2,108.2,21.1,113.1,21.1
	z"/>
<path class="st1" d="M125.8,4.5l-6.2,16.2h2.9l1.5-4.3h6.5l1.5,4.3h3l-6.3-16.2H125.8z M124.8,14.2l2.5-7h0.1l2.4,7H124.8z"/>
<polygon class="st1" points="131.8,6.9 137,6.9 137,20.7 139.8,20.7 139.8,6.9 145,6.9 145,4.5 131.8,4.5 "/>
<rect x="145.7" y="4.5" class="st1" width="2.8" height="16.2"/>
<path class="st1" d="M157.8,4.1c-4.9,0-7.8,3.9-7.8,8.5c0,4.6,2.9,8.5,7.8,8.5c4.9,0,7.8-3.9,7.8-8.5C165.6,7.9,162.7,4.1,157.8,4.1
	z M157.8,18.8c-3.5,0-4.9-3.1-4.9-6.2c0-3.1,1.5-6.2,4.9-6.2c3.5,0,4.9,3.1,4.9,6.2C162.8,15.7,161.3,18.8,157.8,18.8z"/>
<polygon class="st1" points="177.4,16.4 177.4,16.4 170,4.5 166.9,4.5 166.9,20.7 169.7,20.7 169.7,8.8 169.7,8.8 177.1,20.7 
	180.1,20.7 180.1,4.5 177.4,4.5 "/>
<path class="st1" d="M191.4,11.9c-0.8-0.2-4.4-1.2-4.7-1.3c-1.2-0.3-1.9-1-1.9-2.1c0-1.6,1.7-2.1,3-2.1c2,0,3.4,0.8,3.5,2.9h2.8
	c0-3.4-2.8-5.2-6.2-5.2c-2.9,0-5.9,1.5-5.9,4.8c0,1.7,0.8,3.4,3.6,4.1c2.2,0.6,3.7,0.9,4.8,1.3c0.7,0.3,1.3,0.8,1.3,2
	c0,1.2-0.9,2.5-3.4,2.5c-2.3,0-4.1-1-4.1-3.5h-2.8c0.1,4,3.1,5.8,6.8,5.8c3.2,0,6.5-1.5,6.5-5.1C194.6,14.3,193.6,12.5,191.4,11.9z"
	/>
<path class="st2" d="M322.5,17.2c-0.7,0-1.5,0-2.4,0l0,0c-4.4,0.2-12.1,1.6-18.3,3.1c-6.8,1.7-13.8,4.1-20.4,4.9
	c-1.8,0.2-3.8,0.4-5.9,0.4c-1.9,0-3.9-0.2-5.4-0.6c-1.7-0.5-2.9-1.4-3.9-2.6c-1-1.2-1.8-2.7-2.6-4.2c-0.4-0.8-0.8-1.7-1.1-2.5
	c3.1-2.5,6.9-3.8,10.8-3.8l0.1,0c0.5,0,1.1,0,1.5,0.1c0.4,0,2.5,0.4,3.7,0.8c0.1,0,0.2,0.1,0.3,0.1c0.3,0,0.6-0.1,0.9-0.2
	c0.4-0.2,0.8-0.5,1.1-0.7c0.2-0.1,0.3-0.2,0.5-0.2c0.1-0.1,0.2-0.1,0.3-0.1l0.1,0h0l0,0h0l0.1-0.4l0,0l0,0l0.1-0.4
	c-2.2-0.7-4-0.8-6.6-0.8l-0.2,0c-3.4,0-8,1.1-11.4,3.2c-0.8,0.5-1.4,0.9-2,1.3c-0.2-0.4-0.4-0.9-0.6-1.3l0,0
	c-0.3-0.8-0.6-1.7-1.1-2.6c-0.5-0.9-1.1-1.7-2.1-2.2c-0.6-0.3-1.2-0.4-1.8-0.4c-0.9,0-1.9,0.2-2.8,0.6c-0.9,0.4-1.7,0.8-2.2,1.4
	c-1.6,1.4-2.7,2.6-3.8,3.9c-0.6-0.9-1.2-1.9-2.1-2.7c-1-1-2.2-1.4-3.5-1.4c-2.2,0-4.4,1.1-6.1,2.4c-0.3-1.1-0.6-2.2-0.8-3
	c-0.3-1-0.5-1.8-0.6-2.2c-0.3-0.8-0.6-1.9-1-3c-0.4-1.1-0.9-2.1-1.6-2.8c-0.8-0.9-1.9-1.2-3-1.2c-1.6,0-3.3,0.7-4.5,1.3
	c-1.3,0.7-2.6,1.8-3.7,3.2c-1.1,1.3-2,2.7-3,4.3c-1-0.9-2.3-1.5-3.8-1.9c-0.2,0-0.4-0.1-0.7-0.1c-1.1,0-2.5,0.3-3.8,0.7
	c-1.3,0.3-2.3,0.7-2.3,0.7l0.2,0.9c0.5-0.1,1.1-0.2,1.6-0.2c0.1,0,0.3,0,0.4,0c0.9,0,1.7,0.2,2.5,0.6c0.7,0.3,1.2,1,1.7,1.9
	c0.4,0.8,0.8,1.8,1.1,2.7c-1.3,2.4-4.2,6.7-7.6,9.2c-2.4,1.8-5.1,2-6.5,2c0,0-0.3,0-0.4,0c-0.8,0-1.5,0.4-2.1,0.7
	c-0.6,0.3-1.2,0.6-1.6,0.6v0.9h2.6c0,0,0.2,0,0.4,0c1.6-0.1,3.2-0.4,4.8-0.9c1.7-0.6,3.1-1.2,4.5-2.1c1.4-0.8,2.6-1.9,3.7-3.4
	c1.1-1.4,2-2.8,3-4.2c0.5,1.5,1.3,3.6,2.4,5.4c0.6,1,1.3,1.8,2.2,2.5c0.9,0.7,1.9,1.1,3,1.1c0.3,0,0.6,0,0.9-0.1
	c1.7-0.3,3.1-1,4.3-2c1.2-1,2.2-2.2,3.2-3.6c0.3-0.5,0.6-0.9,0.9-1.4c0.1,0.2,0.2,0.5,0.3,0.7c0.3,0.8,0.9,2.1,1.6,3.1
	c0.4,0.5,0.8,1,1.3,1.4c0.5,0.4,1.1,0.7,1.7,0.7l0.1,0c1.7,0,3.1-0.8,3.9-1.4c1.2-0.9,2.2-1.9,3.2-2.9c0.3-0.3,0.5-0.6,0.8-0.8
	c0.3,0.5,0.7,1.1,1.1,1.6c0.6,0.7,1.3,1.3,2.2,1.7c0.4,0.2,0.8,0.2,1.2,0.2c1.1,0,2.3-0.4,3.2-0.7c2.2-0.8,3.8-1.7,5.4-3
	c0.9,2.1,2.1,4.2,3.7,5.9c1.2,1.2,2.7,1.9,4.4,2.4c1.7,0.5,3.5,0.6,5.3,0.6c2.7,0,5.4-0.4,7.5-0.7c13.4-2.2,26.4-8.1,39.9-8.1
	c0.1,0,0.2,0,0.3,0l0,0c0,0,1.9,0,2.4,0c0.8,0,1.4-0.4,2-0.7c0.6-0.3,1.1-0.6,1.5-0.6v-0.9C324.5,17.3,323.5,17.2,322.5,17.2z
	 M252.7,20.9c-0.2,0-0.4,0-0.7-0.2c-0.4-0.2-0.8-0.6-1.1-1.1c-0.3-0.5-0.6-1-0.9-1.5c-0.5-0.8-1-1.8-1.5-2.7
	c0.3-0.4,0.7-0.9,1.1-1.3c0.5-0.5,1.3-1.5,2.1-2.3c0.4-0.4,0.8-0.8,1.2-1.1c0.2-0.1,0.4-0.2,0.5-0.3c0.1-0.1,0.2-0.1,0.3-0.1l0,0
	c0.3,0.1,0.7,0.3,1,0.6c0.5,0.5,0.9,1.4,1.3,2.4c0.4,0.9,0.7,2,1.1,2.9c0.2,0.5,0.4,1,0.7,1.6c-0.5,0.4-1.4,1.2-2.3,1.8
	c-0.5,0.3-1,0.7-1.5,0.9C253.5,20.8,253,20.9,252.7,20.9L252.7,20.9z M258.1,18.1L258.1,18.1L258.1,18.1L258.1,18.1z M239.8,21.7
	c-0.2-0.1-0.3-0.2-0.4-0.3c-0.6-0.8-1.2-2-1.7-3.4c-0.5-1.3-1-2.7-1.4-4.1c0.5-0.5,1-1,1.6-1.4c0.2-0.2,0.6-0.4,0.9-0.5
	c0.3-0.1,0.6-0.2,0.9-0.2c0.1,0,0.2,0,0.2,0c0.6,0.1,1,0.4,1.5,0.8c0.7,0.6,1.3,1.5,1.8,2.5c0.5,0.9,0.9,1.8,1.3,2.7
	c-0.5,0.7-1.1,1.4-1.7,2.1c-0.7,0.7-1.3,1.4-1.9,1.8c-0.2,0.1-0.3,0.2-0.5,0.2C240.2,21.8,240,21.8,239.8,21.7z M230.1,19.4
	c-0.4,0.5-1.1,1.6-1.9,2.5c-0.4,0.5-0.9,0.9-1.4,1.2c-0.5,0.3-1,0.5-1.5,0.5l0,0c-0.3,0-0.6-0.1-0.9-0.3c-0.4-0.3-0.8-0.8-1.2-1.4
	c-0.4-0.6-0.6-1.3-0.9-1.9c-1.2-2.9-1.5-5.7-2.7-8.7c-0.1-0.2-0.2-0.4-0.3-0.5c1.5-2.7,3.2-6.1,5.5-8c0.3-0.2,0.4-0.4,0.5-0.4
	c0.1-0.1,0.1,0,0.1-0.1l0.1,0c0.6,0.1,1.5,0.6,2.4,2.3c1,2,1.8,4.3,2.3,6.5c0.5,1.8,1,3.9,1.5,5.8C231.3,17.7,230.7,18.6,230.1,19.4
	l0.4,0.3L230.1,19.4z"/>
</svg>
